<svg width="25" height="27" viewBox="0 0 25 27" fill="none" xmlns="http://www.w3.org/2000/svg">
<path d="M25 7.23039V3.67647C25 3.55392 24.8775 3.43137 24.7549 3.30882L22.549 2.08333V0.367647C22.549 0.122549 22.4265 0 22.1814 0H3.67647H0.367647C0.122549 0 0 0.122549 0 0.367647V26.2255C0 26.4706 0.122549 26.5931 0.367647 26.5931H3.67647H22.1814C22.4265 26.5931 22.549 26.4706 22.549 26.2255V24.3873L24.7549 23.1618C24.8775 23.0392 25 22.9167 25 22.7941V19.3627C25 19.2402 24.8775 19.1176 24.7549 18.9951L23.7745 18.5049L24.7549 18.0147C24.8775 17.8922 25 17.7696 25 17.6471V14.2157C25 14.0931 24.8775 13.9706 24.7549 13.848L23.7745 13.3578L24.7549 12.8676C24.8775 12.7451 25 12.6226 25 12.5V8.94608C25 8.82353 24.8775 8.70098 24.7549 8.57843L23.7745 8.08824L24.7549 7.59804C24.8775 7.47549 25 7.35294 25 7.23039ZM0.857843 0.857843H3.30882V25.8578H0.857843V0.857843ZM21.8137 25.8578H4.04412V0.857843H21.8137V2.45098V7.72059V12.8676V12.9902V18.1373V24.2647V25.8578ZM24.1422 22.6716L22.549 23.5294V18.75L24.1422 19.6078V22.6716ZM24.1422 17.402L22.9167 18.0147L22.549 17.8922V13.6029L24.1422 14.4608V17.402ZM24.1422 12.1324L22.9167 12.7451L22.549 12.6226V8.33333L24.1422 9.19118V12.1324ZM24.1422 6.98529L22.9167 7.59804L22.549 7.35294V3.06373L24.1422 3.92157V6.98529Z" fill="#DA0703"/>
<path d="M16.9118 6.00479H8.82352C7.72058 6.00479 6.86273 6.86263 6.86273 7.96558V10.4166C6.86273 11.5195 7.72058 12.3773 8.82352 12.3773H16.9118C18.0147 12.3773 18.8725 11.5195 18.8725 10.4166V7.96558C18.9951 6.86263 18.0147 6.00479 16.9118 6.00479ZM18.1372 10.5391C18.1372 11.1519 17.647 11.7646 16.9118 11.7646H8.82352C8.21077 11.7646 7.59803 11.2744 7.59803 10.5391V8.08812C7.59803 7.47538 8.08822 6.86263 8.82352 6.86263H16.9118C17.5245 6.86263 18.1372 7.35283 18.1372 8.08812V10.5391Z" fill="#DA0703"/>
<path d="M10.9069 14.9507H17.7696C18.0147 14.9507 18.1373 14.8281 18.1373 14.583C18.1373 14.3379 18.0147 14.2154 17.7696 14.2154H10.9069C10.6618 14.2154 10.5392 14.4605 10.5392 14.583C10.5392 14.7056 10.6618 14.9507 10.9069 14.9507Z" fill="#DA0703"/>
<path d="M8.45587 14.0934H7.23038C6.98528 14.0934 6.86273 14.3385 6.86273 14.4611C6.86273 14.7062 7.10783 14.8287 7.23038 14.8287H8.45587C8.70097 14.8287 8.82352 14.7062 8.82352 14.4611C8.82352 14.3385 8.70097 14.0934 8.45587 14.0934Z" fill="#DA0703"/>
<path d="M18.5049 16.5438H10.9069C10.6618 16.5438 10.5392 16.6664 10.5392 16.9115C10.5392 17.1566 10.6618 17.2791 10.9069 17.2791H18.6275C18.8726 17.2791 18.9951 17.1566 18.9951 16.9115C18.9951 16.6664 18.75 16.5438 18.5049 16.5438Z" fill="#DA0703"/>
<path d="M8.45587 16.5438H7.23038C6.98528 16.5438 6.86273 16.6664 6.86273 16.9115C6.86273 17.1566 7.10783 17.2791 7.23038 17.2791H8.45587C8.70097 17.2791 8.82352 17.1566 8.82352 16.9115C8.82352 16.6664 8.70097 16.5438 8.45587 16.5438Z" fill="#DA0703"/>
<path d="M16.9118 18.8723H10.9069C10.6618 18.8723 10.5392 18.9948 10.5392 19.2399C10.5392 19.485 10.6618 19.6076 10.9069 19.6076H16.9118C17.1569 19.6076 17.2794 19.485 17.2794 19.2399C17.2794 19.1174 17.1569 18.8723 16.9118 18.8723Z" fill="#DA0703"/>
<path d="M8.45587 18.8723H7.23038C6.98528 18.8723 6.86273 18.9948 6.86273 19.2399C6.86273 19.485 7.10783 19.6076 7.23038 19.6076H8.45587C8.70097 19.6076 8.82352 19.485 8.82352 19.2399C8.82352 19.1174 8.70097 18.8723 8.45587 18.8723Z" fill="#DA0703"/>
</svg>
